{
  "asset": {
    "version": "2.0",
    "generator": "VESTIGIO J01 original procedural asset"
  },
  "scene": 0,
  "scenes": [
    {
      "name": "Atrium materials",
      "nodes": [
        0,
        1,
        2
      ]
    }
  ],
  "nodes": [
    {
      "name": "Floor block",
      "mesh": 0
    },
    {
      "name": "Monument block",
      "mesh": 1
    },
    {
      "name": "Pillar block",
      "mesh": 2
    }
  ],
  "meshes": [
    {
      "name": "Slate floor",
      "primitives": [
        {
          "attributes": {
            "POSITION": 0
          },
          "indices": 1,
          "material": 0
        }
      ]
    },
    {
      "name": "Cyan monument",
      "primitives": [
        {
          "attributes": {
            "POSITION": 0
          },
          "indices": 1,
          "material": 1
        }
      ]
    },
    {
      "name": "Amber pillars",
      "primitives": [
        {
          "attributes": {
            "POSITION": 0
          },
          "indices": 1,
          "material": 2
        }
      ]
    }
  ],
  "materials": [
    {
      "name": "Slate floor",
      "pbrMetallicRoughness": {
        "baseColorFactor": [
          0.07,
          0.16,
          0.2,
          1
        ],
        "metallicFactor": 0,
        "roughnessFactor": 1
      },
      "emissiveFactor": [
        0.01,
        0.02,
        0.03
      ],
      "doubleSided": true
    },
    {
      "name": "Cyan monument",
      "pbrMetallicRoughness": {
        "baseColorFactor": [
          0.09,
          0.65,
          0.78,
          1
        ],
        "metallicFactor": 0,
        "roughnessFactor": 1
      },
      "emissiveFactor": [
        0.02,
        0.08,
        0.1
      ],
      "doubleSided": true
    },
    {
      "name": "Amber pillars",
      "pbrMetallicRoughness": {
        "baseColorFactor": [
          0.85,
          0.3,
          0.11,
          1
        ],
        "metallicFactor": 0,
        "roughnessFactor": 1
      },
      "emissiveFactor": [
        0.05,
        0.01,
        0.0
      ],
      "doubleSided": true
    }
  ],
  "buffers": [
    {
      "byteLength": 168,
      "uri": "data:application/octet-stream;base64,"
    }
  ],
  "bufferViews": [
    {
      "buffer": 0,
      "byteOffset": 0,
      "byteLength": 96,
      "target": 34962
    },
    {
      "buffer": 0,
      "byteOffset": 96,
      "byteLength": 72,
      "target": 34963
    }
  ],
  "accessors": [
    {
      "bufferView": 0,
      "componentType": 5126,
      "count": 8,
      "type": "VEC3",
      "min": [
        -0.5,
        -0.5,
        -0.5
      ],
      "max": [
        0.5,
        0.5,
        0.5
      ]
    },
    {
      "bufferView": 1,
      "componentType": 5123,
      "count": 36,
      "type": "SCALAR",
      "min": [
        0
      ],
      "max": [
        7
      ]
    }
  ]
}
